<svg xmlns="http://www.w3.org/2000/svg" width="179.635" height="208.56"><path d="M4.675 202.81a617.427 617.427 0 0 1-.25-12.05c-.052-5.487-.378-6.54-2.524-8.166-2.135-1.616-2.311-2.177-1.321-4.2.628-1.284 1.912-4.809 2.852-7.834 3.225-10.374 12.04-25.168 17.159-28.795 6.232-4.417 17.437-9.282 24.873-10.798 4.716-.961 8.786-2.425 10.095-3.63 1.665-1.534 2.992-1.873 5.5-1.41 4.505.833 13.148-3.193 15.145-7.054 2.266-4.383 3.032-11.66 1.664-15.806-.662-2.004-3.43-6.32-6.153-9.591-4.645-5.582-4.978-6.363-5.416-12.682-.257-3.704-.54-7.634-.63-8.734-.278-3.432 5.162-18.542 8.625-23.956 6.566-10.264 16.595-17.332 25.879-18.237 2.856-.279 5.329-.636 5.496-.793.694-.657 14.405 3.424 17.423 5.186 8.158 4.765 13.373 16.254 14.477 31.894.502 7.11.214 9.346-2.223 17.292-1.835 5.982-3.896 10.417-5.979 12.87-7.065 8.32-10.362 14.034-11.43 19.816-1.824 9.867-1.519 11.571 2.674 14.917 4.511 3.599 15.532 9.054 23.73 11.745 9.129 2.997 15.33 6.482 19.724 11.086 4.906 5.14 11.524 18.872 13.322 27.645.737 3.594 1.646 7.54 2.021 8.767.542 1.777.177 2.424-1.79 3.172-2.656 1.01-3.753 4.288-3.753 11.221v3.875h-169l-.19-5.75z" fill="#787878"/></svg>